<?xml version="1.0" encoding="UTF-8"?>
<svg version="1.1" xmlns="http://www.w3.org/2000/svg" width="873" height="808">
<path d="M0 0 C288.09 0 576.18 0 873 0 C873 266.64 873 533.28 873 808 C584.91 808 296.82 808 0 808 C0 541.36 0 274.72 0 0 Z " fill="#131313" transform="translate(0,0)"/>
<path d="M0 0 C288.09 0 576.18 0 873 0 C873 266.64 873 533.28 873 808 C584.91 808 296.82 808 0 808 C0 541.36 0 274.72 0 0 Z M324 59 C323.10571289 59.27537598 322.21142578 59.55075195 321.29003906 59.83447266 C306.96817765 64.2869022 293.2114186 69.60219421 279.5703125 75.83007812 C277.26318335 76.88020758 274.94689984 77.90496886 272.625 78.921875 C255.59086295 86.50881398 239.22648055 96.25319416 224 107 C222.38738281 108.11181641 222.38738281 108.11181641 220.7421875 109.24609375 C207.76812685 118.26858015 195.62816059 128.3076674 184 139 C182.3751007 140.43761383 180.75009816 141.87511097 179.125 143.3125 C175.25379494 146.79963275 171.50535414 150.38876481 167.8125 154.0625 C167.3376416 154.53276611 166.8627832 155.00303223 166.37353516 155.48754883 C122.5447924 199.50514346 91.01403098 258.41997886 76.59960938 318.55029297 C76.06508007 320.73411506 75.49200699 322.900237 74.890625 325.06640625 C71.51320738 337.52388126 69.71672507 350.22368008 68 363 C67.81775879 364.3005835 67.81775879 364.3005835 67.63183594 365.62744141 C61.42233281 411.6241041 65.71903228 461.78700372 79.41308594 506.08935547 C79.98783708 507.96040472 80.52946324 509.84152727 81.0703125 511.72265625 C87.27177984 532.69055456 95.83452612 552.76248315 105.63623047 572.27880859 C106.82045186 574.64173943 107.97836384 577.01511399 109.12890625 579.39453125 C118.34877227 598.03057469 130.86671728 615.92963769 144 632 C144.72960937 632.91910156 145.45921875 633.83820312 146.2109375 634.78515625 C151.4080383 641.26785567 156.93977909 647.4019518 162.59716797 653.47949219 C163.98745781 654.98640572 165.35763283 656.50925246 166.72265625 658.0390625 C173.09014157 665.152155 179.83454601 671.69536672 187 678 C187.53995605 678.47937012 188.07991211 678.95874023 188.63623047 679.45263672 C203.14777994 692.30330228 218.69967841 703.530965 235 714 C235.60038086 714.38720215 236.20076172 714.7744043 236.81933594 715.17333984 C256.95419409 728.03311028 278.72478068 738.45175127 301 747 C301.84546387 747.32548828 302.69092773 747.65097656 303.56201172 747.98632812 C338.88242794 761.38975801 377.83583667 769.21173106 415.62451172 769.94873047 C418.01324297 770.00028582 420.39783569 770.09560532 422.78515625 770.19140625 C451.64445149 771.03524529 481.97558291 767.89000888 510 761 C511.87497125 760.56628196 513.74997158 760.13268958 515.625 759.69921875 C572.97713622 745.98597054 627.49257842 716.81115934 670.86328125 676.953125 C672.76912347 675.21103887 674.71503302 673.54045187 676.6875 671.875 C680.81590372 668.27739104 684.68425755 664.4251101 688.5625 660.5625 C689.50065552 659.63123291 689.50065552 659.63123291 690.45776367 658.68115234 C694.83976519 654.28476096 698.97140347 649.72118205 703 645 C703.55034912 644.35635498 704.10069824 643.71270996 704.66772461 643.04956055 C734.48594929 607.91371584 756.12142464 568.14321598 772 525 C772.52049927 523.62799438 772.52049927 523.62799438 773.05151367 522.22827148 C780.66336752 501.93181863 784.73805709 480.36649175 788 459 C788.16516113 457.97648437 788.33032227 456.95296875 788.50048828 455.8984375 C794.04954265 420.3661266 793.58702275 381.35943884 787 346 C786.88120483 345.3553479 786.76240967 344.7106958 786.64001465 344.04650879 C781.11227741 314.24613767 772.09990926 285.80204568 760 258 C759.65114746 257.19175781 759.30229492 256.38351562 758.94287109 255.55078125 C746.02484676 225.9264941 727.65679627 198.73423893 707 174 C705.79923828 172.51886719 705.79923828 172.51886719 704.57421875 171.0078125 C697.9699979 162.97382455 690.76767859 155.55335501 683.4375 148.1875 C682.95480652 147.69963013 682.47211304 147.21176025 681.97479248 146.70910645 C675.33000274 140.0081985 668.37934287 133.88286959 661 128 C659.96065392 127.12497156 658.92553192 126.24484612 657.8984375 125.35546875 C624.9942537 97.08639443 585.50728301 77.47753713 544.89599609 63.03076172 C542.53627886 62.19087585 540.18325406 61.33586951 537.83203125 60.47265625 C518.22057358 53.53662659 497.56083647 49.7758986 477 47 C475.92427734 46.84901855 474.84855469 46.69803711 473.74023438 46.54248047 C423.8845412 39.74197612 372.04558547 43.99956941 324 59 Z " fill="#FEFEFE" transform="translate(0,0)"/>
<path d="M0 0 C0.84111328 0.10868408 1.68222656 0.21736816 2.54882812 0.3293457 C9.37960756 1.30269322 15.81292885 3.05092881 22.37109375 5.14453125 C28.26603283 7.0085486 34.25875562 8.48140795 40.25 10 C52.10351851 13.02935275 63.86827141 16.31247404 75.57910156 19.85400391 C77.31318861 20.36656913 79.05507529 20.85347121 80.80371094 21.31396484 C89.64985295 23.71197473 97.64952862 28.09762048 103.1875 35.625 C104.63936392 40.49398852 104.15523885 44.7931523 103.51513672 49.73974609 C103.05264139 53.81259987 102.86381606 57.89162667 102.64929199 61.98391724 C102.2491438 69.53722417 101.71784194 77.07989935 101.1875 84.625 C101.11805176 85.6651123 101.04860352 86.70522461 100.97705078 87.77685547 C98.8928203 118.66907573 94.64275457 149.35115983 88.1875 179.625 C86.5375 179.955 84.8875 180.285 83.1875 180.625 C82.8471875 182.48125 82.8471875 182.48125 82.5 184.375 C82.30857422 185.41914062 82.30857422 185.41914062 82.11328125 186.484375 C81.97016731 188.74894301 81.97016731 188.74894301 83.7265625 190.4375 C85.52311116 193.12751939 85.25248421 194.6877078 84.69018555 197.80004883 C84.54492432 198.48478271 84.39966309 199.1695166 84.25 199.875 C84.10667236 200.60807373 83.96334473 201.34114746 83.81567383 202.09643555 C80.28421612 219.53087383 75.48515794 236.65551297 70.1875 253.625 C69.83510254 254.76904297 69.48270508 255.91308594 69.11962891 257.09179688 C57.2107732 295.65480385 42.8720351 332.89809317 26.1875 369.625 C22.70558672 369.04595515 19.904548 368.16361281 16.7734375 366.54296875 C15.93949463 366.11169678 15.10555176 365.6804248 14.24633789 365.23608398 C13.36067139 364.76630127 12.47500488 364.29651855 11.5625 363.8125 C10.17502563 363.07978882 10.17502563 363.07978882 8.75952148 362.33227539 C-27.17420836 343.07473581 -60.96832106 316.31106216 -87.8125 285.625 C-88.28606934 285.09084473 -88.75963867 284.55668945 -89.24755859 284.00634766 C-107.9546204 262.88467662 -123.09165915 239.58345165 -136.8125 215 C-137.29388428 214.14639893 -137.77526855 213.29279785 -138.27124023 212.41333008 C-138.71798096 211.60404053 -139.16472168 210.79475098 -139.625 209.9609375 C-140.02332031 209.24470215 -140.42164063 208.5284668 -140.83203125 207.79052734 C-141.90685846 205.41659374 -142.39445993 203.18999045 -142.8125 200.625 C-142.29042969 200.34938232 -141.76835937 200.07376465 -141.23046875 199.78979492 C-122.25071125 189.71199242 -105.15205004 178.37170089 -89.2578125 163.84765625 C-86.91098338 161.71451605 -84.52215414 159.63867927 -82.125 157.5625 C-77.96611679 153.85283414 -74.34474885 149.92992829 -70.8125 145.625 C-70.38066406 145.10550781 -69.94882813 144.58601562 -69.50390625 144.05078125 C-61.96503882 134.95919315 -55.20213409 125.55311671 -48.8125 115.625 C-46.22802582 111.74828873 -44.18367286 111.81713805 -39.8125 110.625 C-37.99353027 106.98706054 -38.55995798 103.38262607 -39.8125 99.625 C-39.24267578 97.87695312 -39.24267578 97.87695312 -38.2578125 95.90625 C-37.89445801 95.15230957 -37.53110352 94.39836914 -37.15673828 93.62158203 C-36.75438965 92.79770996 -36.35204102 91.97383789 -35.9375 91.125 C-28.19978283 74.62134857 -21.62684685 56.69712729 -18.8125 38.625 C-18.68681641 37.83432129 -18.56113281 37.04364258 -18.43164062 36.22900391 C-16.91149457 26.55680701 -15.47215666 17.03014722 -15.51171875 7.21875 C-14.67013759 4.09690703 -13.25516508 2.45525317 -10.66967773 0.52636719 C-7.13349096 -1.18989436 -3.78285169 -0.56611748 0 0 Z " fill="#FEFEFE" transform="translate(247.8125,360.375)"/>
<path d="M0 0 C3.42533785 0.02655301 5.32538635 0.13938986 8.1640625 2.1015625 C10.18281097 4.18465355 12.05260967 6.35826874 13.9375 8.5625 C15.22739372 9.7337235 16.53998518 10.8804797 17.875 12 C21.60366873 15.20329858 25.04689297 18.62910506 28.46875 22.15625 C30.4098246 24.04818347 32.36663694 25.80009872 34.42504883 27.55664062 C39.70761974 32.16605326 44.64824122 37.1090456 49.60546875 42.0625 C50.61331838 43.0671272 51.62123907 44.07168312 52.62922668 45.07617188 C54.72781115 47.16881099 56.82436224 49.263463 58.91967773 51.359375 C61.59075763 54.03055682 64.26867449 56.69476968 66.94837475 59.3572998 C69.02714981 61.42490802 71.10131505 63.49709447 73.17424965 65.57055664 C74.15931869 66.55445462 75.14598871 67.53675268 76.13435936 68.51733398 C89.89714704 82.18167546 89.89714704 82.18167546 90 88.25 C89.979375 89.343125 89.95875 90.43625 89.9375 91.5625 C91.35416667 94.14583333 91.35416667 94.14583333 93.9375 95.5625 C95.02933594 95.49160156 96.12117187 95.42070313 97.24609375 95.34765625 C102.05070768 95.62728987 103.21738158 97.07719536 106.4375 100.5625 C107.147854 101.31744751 107.147854 101.31744751 107.87255859 102.08764648 C109.24801122 103.56040781 110.59350595 105.06097549 111.9375 106.5625 C112.57945312 107.27535156 113.22140625 107.98820313 113.8828125 108.72265625 C114.98792552 109.974261 116.0833209 111.23452519 117.16796875 112.50390625 C120.68105948 116.59087935 124.32424332 120.56415701 127.9375 124.5625 C126.67339282 128.45715403 125.29905502 132.29282119 123.83178711 136.11547852 C107.02137228 180.02741901 103.57954247 227.30139707 116.88671875 272.70703125 C117.88695476 276.37704219 118.4897052 279.79807119 118.9375 283.5625 C96.84138495 291.24466186 75.09395725 296.08395662 51.9375 299.5625 C50.88804199 299.73056152 49.83858398 299.89862305 48.75732422 300.07177734 C17.44951111 305.02213613 -15.76181977 304.14230621 -47.0625 299.5625 C-47.90683594 299.4397168 -48.75117188 299.31693359 -49.62109375 299.19042969 C-54.46963866 298.45830747 -59.26206554 297.56218806 -64.0625 296.5625 C-65.1129248 296.34424561 -65.1129248 296.34424561 -66.18457031 296.12158203 C-78.22243407 293.59475368 -90.14454645 290.59797042 -102.0625 287.5625 C-100.94905572 281.30168389 -99.49816873 275.44438425 -97.25 269.5 C-95.09437594 263.6146573 -93.1580401 257.71445274 -91.4375 251.6875 C-89.87881211 246.23485274 -88.14724346 240.9280375 -86.13839722 235.62132263 C-84.91008868 232.12918799 -83.8867041 228.59335428 -82.87158203 225.03540039 C-79.89191697 214.76479111 -76.51083524 204.63586119 -73.1171875 194.49609375 C-72.45869324 192.52180694 -71.80042332 190.5474453 -71.1423645 188.57301331 C-69.77434202 184.47049624 -68.40433266 180.36865037 -67.03271484 176.26733398 C-65.28014765 171.02671815 -63.5315916 165.78477491 -61.78437614 160.5423727 C-60.43010201 156.47982272 -59.07426287 152.41779649 -57.71789932 148.35594368 C-57.07248649 146.42287071 -56.42742818 144.48967934 -55.78274155 142.55636406 C-54.88254422 139.85795271 -53.98037056 137.16021015 -53.07763672 134.46264648 C-52.81575562 133.67654999 -52.55387451 132.89045349 -52.28405762 132.08053589 C-50.64725477 127.19812695 -48.88564316 122.37843268 -47.0625 117.5625 C-46.14501737 114.94072894 -45.25796495 112.30935475 -44.375 109.67578125 C-43.84552723 108.10772326 -43.3157252 106.53977642 -42.78564453 104.97192383 C-42.50609924 104.14447662 -42.22655396 103.31702942 -41.9385376 102.46450806 C-35.87281478 84.53464049 -29.58725744 66.68821594 -23.1875 48.875 C-22.79175781 47.77322418 -22.39601563 46.67144836 -21.98828125 45.5362854 C-19.72334424 39.23451908 -17.45110983 32.9354272 -15.17346191 26.63824463 C-14.02866844 23.46883592 -12.88867216 20.29772672 -11.74902344 17.12646484 C-11.01771694 15.09858275 -10.2862773 13.07074866 -9.5546875 11.04296875 C-9.21664093 10.09948074 -8.87859436 9.15599274 -8.53030396 8.18391418 C-8.21979095 7.32553452 -7.90927795 6.46715485 -7.58935547 5.58276367 C-7.31751434 4.82742844 -7.04567322 4.0720932 -6.76559448 3.29386902 C-5.37784476 -0.12346242 -3.50588439 0.22665277 0 0 Z " fill="#FDFDFD" transform="translate(425.0625,463.4375)"/>
<path d="M0 0 C2.55076005 0.00537568 5.1013447 0.00000297 7.65209961 -0.00634766 C22.73762453 -0.01433225 37.61706509 0.56350985 52.54858398 2.88037109 C53.69270752 3.0552002 54.83683105 3.2300293 56.015625 3.41015625 C76.79633487 6.67420211 98.17875434 10.46386722 117.48608398 19.13037109 C117.22130249 20.24895508 117.22130249 20.24895508 116.95117188 21.39013672 C116.1459936 24.80254633 115.34724157 28.21642972 114.54858398 31.63037109 C114.27079102 32.80341797 113.99299805 33.97646484 113.70678711 35.18505859 C113.43930664 36.33232422 113.17182617 37.47958984 112.89624023 38.66162109 C112.52704468 40.23266602 112.52704468 40.23266602 112.15039062 41.83544922 C110.82586952 48.40499602 110.32846902 54.76397719 110.31811523 61.44287109 C110.31478683 62.2148584 110.31145844 62.9868457 110.30802917 63.78222656 C110.30299723 65.4091737 110.30061969 67.03613103 110.30078125 68.66308594 C110.29861426 71.09637474 110.28047248 73.52919461 110.26147461 75.96240234 C110.25738823 77.56005456 110.255432 79.15771366 110.25561523 80.75537109 C110.25336945 81.55264618 110.25112366 82.34992126 110.24880981 83.1713562 C110.28165671 86.91298548 110.45590509 90.41982756 111.26098633 94.08007812 C114.05631544 107.39759295 108.9346689 117.00236315 103.48608398 129.00537109 C102.55447407 131.12193044 101.62636314 133.24003313 100.70166016 135.35961914 C99.30585929 138.55679252 97.90714118 141.75231117 96.49320984 144.94151306 C93.60329963 151.47399003 90.89359623 158.04597116 88.34936523 164.72021484 C87.73559725 166.30833174 87.12167055 167.89638731 86.50756836 169.484375 C85.6567244 171.6888181 84.81622833 173.8943764 84.00830078 176.1149292 C80.03122504 187.00754291 80.03122504 187.00754291 76.52807617 189.55322266 C74.1683991 190.3916271 71.96415027 190.77582027 69.48608398 191.13037109 C67.49552236 191.64001552 65.50869213 192.16438171 63.52514648 192.70068359 C61.38814956 193.22311896 59.25010429 193.74128288 57.11108398 194.25537109 C55.52166992 194.65175781 55.52166992 194.65175781 53.90014648 195.05615234 C39.35524679 198.56760484 39.35524679 198.56760484 33.48608398 198.13037109 C32.13213786 197.1584618 30.79708962 196.15946876 29.48608398 195.13037109 C25.85958448 195.04120955 25.85958448 195.04120955 22.48608398 196.13037109 C22.22093994 196.78440918 21.9557959 197.43844727 21.68261719 198.11230469 C20.48608398 200.13037109 20.48608398 200.13037109 17.69384766 200.9453125 C4.73957976 202.37590762 -8.17631758 202.52387233 -21.20141602 202.50537109 C-22.37190491 202.50615662 -23.5423938 202.50694214 -24.74835205 202.50775146 C-44.82797307 202.49160228 -65.17130057 202.17834381 -84.51391602 196.13037109 C-84.63919678 195.45796387 -84.76447754 194.78555664 -84.89355469 194.09277344 C-88.05388949 177.20612279 -91.37611346 160.36461462 -95.63891602 143.71630859 C-96.47621149 140.2848923 -96.91208194 137.63423127 -96.51391602 134.13037109 C-95.53362985 132.78247762 -94.53420467 131.44824394 -93.51391602 130.13037109 C-92.93058268 127.63037109 -92.93058268 127.63037109 -93.51391602 125.13037109 C-95.937243 122.01466497 -97.72388021 120.9265971 -101.51391602 120.13037109 C-101.79364258 119.07462891 -102.07336914 118.01888672 -102.36157227 116.93115234 C-105.17865594 106.4661594 -108.42017981 96.20087614 -111.90063477 85.93896484 C-113.14142941 82.27314136 -114.29731214 78.59381807 -115.38891602 74.88037109 C-119.9171001 59.9295564 -125.43903609 45.1720234 -131.61547852 30.82568359 C-132.51391602 28.13037109 -132.51391602 28.13037109 -131.51391602 25.13037109 C-129.13485652 24.02256476 -126.85801939 23.11237696 -124.38891602 22.25537109 C-123.75598633 22.02462891 -123.12305664 21.79388672 -122.47094727 21.55615234 C-120.15984763 20.723444 -117.83781844 19.92667931 -115.51391602 19.13037109 C-114.43166748 18.75114502 -113.34941895 18.37191895 -112.234375 17.98120117 C-102.54792647 14.65271294 -92.77929351 11.97474814 -82.82641602 9.56787109 C-82.02698578 9.37338379 -81.22755554 9.17889648 -80.40390015 8.97851562 C-53.75492129 2.54004033 -27.36965838 -0.06831248 0 0 Z " fill="#FEFEFE" transform="translate(426.513916015625,47.86962890625)"/>
<path d="M0 0 C2.58349951 12.21987602 5.07813025 24.42997609 6.75 36.8125 C6.86512939 37.66279785 6.98025879 38.5130957 7.09887695 39.38916016 C7.42565224 41.92382987 7.72105872 44.4596333 8 47 C8.09643799 47.85988525 8.19287598 48.71977051 8.29223633 49.60571289 C9.24635768 59.32449664 9.19842629 69.05698039 9.1875 78.8125 C9.18709213 80.17652954 9.18709213 80.17652954 9.18667603 81.56811523 C9.15944763 101.36599237 7.91292137 120.56582385 4 140 C2.66679321 140.02777514 1.33340287 140.04673341 0 140.0625 C-0.7425 140.07410156 -1.485 140.08570313 -2.25 140.09765625 C-5 140 -5 140 -8.62890625 139.50878906 C-12.98912618 138.95302318 -17.2955565 138.80547734 -21.6875 138.76171875 C-22.49998703 138.75219681 -23.31247406 138.74267487 -24.14958191 138.73286438 C-26.76642399 138.70847404 -29.38305965 138.69588101 -32 138.6875 C-32.89006744 138.68355225 -33.78013489 138.67960449 -34.69717407 138.67553711 C-48.42557253 138.6470944 -61.43740442 139.52804905 -74.86401367 142.6328125 C-79.15519684 143.37048989 -81.29702245 143.4686517 -85 141 C-88.54578685 140.83974601 -88.54578685 140.83974601 -92 142 C-94.01041003 144.93449408 -94.01041003 144.93449408 -95 148 C-101.685531 147.4248278 -107.80553261 146.15020288 -114.25 144.3125 C-115.20310059 144.04703369 -116.15620117 143.78156738 -117.13818359 143.50805664 C-122.77540902 141.93225289 -128.39931973 140.31065185 -134.02319336 138.68798828 C-134.88178955 138.44032715 -135.74038574 138.19266602 -136.625 137.9375 C-137.48681885 137.6885498 -138.3486377 137.43959961 -139.23657227 137.18310547 C-146.02046039 135.2401256 -152.84365731 133.50359296 -159.69628906 131.82177734 C-166.59489294 130.12225914 -173.43514853 128.25019016 -180.2734375 126.32421875 C-186.57424415 124.55034907 -192.89454669 122.84754493 -199.21435547 121.14282227 C-201.8123306 120.43820896 -204.40619576 119.71979534 -207 119 C-207.93263672 118.7510498 -208.86527344 118.50209961 -209.82617188 118.24560547 C-210.72916016 117.99439941 -211.63214844 117.74319336 -212.5625 117.484375 C-213.37847656 117.26233398 -214.19445312 117.04029297 -215.03515625 116.81152344 C-217 116 -217 116 -218.5 113.375 C-218.665 112.59125 -218.83 111.8075 -219 111 C-222.01324195 109.49337903 -224.68286377 109.82229627 -228 110 C-228.66 110.66 -229.32 111.32 -230 112 C-231.83227539 111.83911133 -231.83227539 111.83911133 -234.03515625 111.26953125 C-234.84227051 111.0679541 -235.64938477 110.86637695 -236.48095703 110.65869141 C-237.31224121 110.44132324 -238.14352539 110.22395508 -239 110 C-240.54003756 109.62755143 -242.08040057 109.25644588 -243.62109375 108.88671875 C-245.2270542 108.48895919 -246.83250755 108.08914768 -248.4375 107.6875 C-249.74001709 107.3615686 -249.74001709 107.3615686 -251.06884766 107.02905273 C-258.18357751 105.23387404 -265.25384915 103.30158437 -272.31640625 101.3125 C-277.47237576 99.86104345 -282.64256331 98.46321953 -287.8125 97.0625 C-296.05965647 94.82540831 -304.27587672 92.49345565 -312.48486328 90.12060547 C-319.29955663 88.16555983 -326.14979667 86.41691813 -333.04296875 84.76171875 C-336 84 -336 84 -338 83 C-337.3628908 77.99546818 -335.90878629 73.67720027 -334.09375 69.01171875 C-333.80898804 68.26791458 -333.52422607 67.52411041 -333.23083496 66.75776672 C-332.63166286 65.19612466 -332.02976796 63.63552484 -331.42529297 62.07592773 C-330.49709937 59.68001271 -329.57797619 57.28076496 -328.66015625 54.88085938 C-328.07604685 53.3617768 -327.49142947 51.84288943 -326.90625 50.32421875 C-326.63018921 49.60449387 -326.35412842 48.88476898 -326.06970215 48.14323425 C-324.11620188 43.11620188 -324.11620188 43.11620188 -323 42 C-315.70072232 40.95941619 -308.42529201 40.76083966 -301.0625 40.5625 C-270.51260012 39.63777248 -270.51260012 39.63777248 -240.09716797 36.81616211 C-232.9896834 35.93997653 -225.85776074 35.3921988 -218.72158813 34.81210327 C-201.55880941 33.40619778 -184.47764758 31.57946315 -167.40594482 29.31713867 C-164.87553 28.98359304 -162.34432284 28.65656624 -159.81298828 28.33007812 C-111.90110672 22.11337193 -64.40527668 13.02546328 -17.23046875 2.64453125 C-16.53063873 2.4909465 -15.83080872 2.33736176 -15.10977173 2.17912292 C-4.9129889 -0.0926979 -4.9129889 -0.0926979 0 0 Z " fill="#FDFDFD" transform="translate(779,326)"/>
<path d="M0 0 C1.20336914 1.58764648 1.20336914 1.58764648 2.125 3.5 C3.65932269 7.3375999 3.65932269 7.3375999 7.5 8.125 C11.41559237 7.98515742 12.04613508 7.28686317 15 5 C19.84005659 5.50719156 24.50014376 6.85841865 29.1875 8.125 C30.87612156 8.57619699 32.56493551 9.02667438 34.25390625 9.4765625 C35.16930176 9.72051758 36.08469727 9.96447266 37.02783203 10.21582031 C40.2325573 11.06135814 43.44171076 11.88812354 46.65234375 12.7109375 C81.06789633 21.53394817 81.06789633 21.53394817 86 24 C81.37439892 73.72521157 42.43113403 129.94369905 10 166 C9.51853516 166.53786133 9.03707031 167.07572266 8.54101562 167.62988281 C-1.6499831 178.97060035 -12.20973985 190.30315288 -24 200 C-24.89452881 200.7412915 -24.89452881 200.7412915 -25.80712891 201.49755859 C-27.92940083 203.25393894 -30.05733257 205.00320538 -32.1875 206.75 C-32.87763184 207.3179126 -33.56776367 207.8858252 -34.27880859 208.47094727 C-37.72341735 211.27297992 -41.09656251 213.84742476 -45 216 C-58.40398595 198.84610646 -58.40398595 198.84610646 -63.6875 191.75 C-72.3141332 180.18427446 -81.39665122 168.98103902 -90.5234375 157.80859375 C-91.83047541 156.2076452 -93.13423356 154.60402024 -94.4375 153 C-98.86652199 147.55863012 -103.36677216 142.18350605 -107.91235352 136.83959961 C-110.84308541 133.38821312 -113.71729231 129.8976381 -116.5625 126.375 C-121.16346991 120.71547361 -126.04425172 115.34889742 -131 110 C-129.28571568 104.63219572 -127.50259745 99.48112989 -124 95 C-120.375 93.625 -120.375 93.625 -117 93 C-114.95548981 91.95625978 -114.95548981 91.95625978 -114 90 C-113.74996036 86.54178598 -113.74996036 86.54178598 -114 83 C-114 78.28275448 -112.50587648 76.54011831 -109.6875 73.0625 C-109.23963135 72.49692383 -108.7917627 71.93134766 -108.33032227 71.34863281 C-106.90004971 69.554656 -105.45304591 67.77556779 -104 66 C-103.30293945 65.14414307 -103.30293945 65.14414307 -102.59179688 64.27099609 C-93.64203681 53.33554735 -84.11785813 43.77256897 -73 35 C-72.02417969 34.20722656 -71.04835938 33.41445313 -70.04296875 32.59765625 C-56.53934405 21.84571356 -41.65517663 13.22230464 -26 6 C-25.27329102 5.65888184 -24.54658203 5.31776367 -23.79785156 4.96630859 C-21.56389111 3.9294921 -19.31719967 2.92830321 -17.0625 1.9375 C-16.38888428 1.62586914 -15.71526855 1.31423828 -15.02124023 0.99316406 C-10.07069745 -1.10267728 -5.19152228 -1.8206822 0 0 Z " fill="#FDFDFD" transform="translate(688,479)"/>
<path d="M0 0 C2.76111016 1.45772897 4.17526975 3.4673813 6.07421875 5.93359375 C14.63188223 16.76768003 23.75290124 26.92948086 34.76171875 35.30859375 C35.49350342 35.86619385 36.22528809 36.42379395 36.97924805 36.99829102 C46.60224687 44.19010829 56.84487448 50.191535 67.76171875 55.18359375 C71.40119233 56.92615976 73.46593778 58.04323451 75.07421875 61.80859375 C75.34234375 62.86046875 75.61046875 63.91234375 75.88671875 64.99609375 C77.04974029 66.38138024 77.04974029 66.38138024 80.26171875 66.18359375 C83.98347266 66.30063228 83.98347266 66.30063228 86.88671875 63.99609375 C89.34765625 64.1328125 89.34765625 64.1328125 92.26171875 64.68359375 C93.33035156 64.88210938 94.39898438 65.080625 95.5 65.28515625 C99.82312705 66.19266389 104.11169593 67.21577582 108.390625 68.3125 C118.2767859 70.24554822 128.34569313 70.23607012 138.38671875 70.24609375 C139.09092957 70.24710083 139.79514038 70.24810791 140.52069092 70.24914551 C158.0763357 70.23222153 174.40373951 67.91301248 190.9609375 61.875 C193.78911284 61.02541462 195.95790261 60.82381045 198.88671875 60.99609375 C211.19469331 93.30896068 211.19469331 93.30896068 211.88671875 105.99609375 C198.95570294 109.68046574 185.86090834 112.46087932 172.69921875 115.18359375 C171.55498444 115.42120422 170.41075012 115.6588147 169.23184204 115.90362549 C144.44998458 121.03220463 119.56108701 125.43655434 94.59265137 129.54943848 C92.12009481 129.95757149 89.64828129 130.36984426 87.17675781 130.78417969 C23.64986836 141.40863063 -42.63883318 149.15431737 -107.11328125 147.99609375 C-106.4187925 143.75875688 -105.05354639 139.896173 -103.5078125 135.91015625 C-103.23585052 135.200336 -102.96388855 134.49051575 -102.6836853 133.75918579 C-101.76912922 131.37796394 -100.84787322 128.99940683 -99.92578125 126.62109375 C-99.60791656 125.79782593 -99.29005188 124.97455811 -98.96255493 124.12634277 C-92.7647714 108.07980943 -86.42046092 92.09094715 -80.04571152 76.11406708 C-79.30044801 74.24525812 -78.55631364 72.37600285 -77.81240845 70.50665283 C-76.41001497 66.98596468 -75.00272546 63.46727716 -73.59375 59.94921875 C-73.17040375 58.88530914 -72.7470575 57.82139954 -72.31088257 56.72525024 C-71.91849396 55.74889618 -71.52610535 54.77254211 -71.12182617 53.76660156 C-70.78068283 52.91382629 -70.43953949 52.06105103 -70.08805847 51.18243408 C-67.77558249 45.99575203 -65.18748204 45.11803226 -60.11328125 42.99609375 C-58.73203107 40.23359339 -58.92248819 38.04878276 -59.11328125 34.99609375 C-59.77328125 34.33609375 -60.43328125 33.67609375 -61.11328125 32.99609375 C-60.79003379 29.27874799 -60.21913249 26.09540946 -58.11328125 22.99609375 C-55.44970703 21.67504883 -55.44970703 21.67504883 -52.05859375 20.515625 C-51.4491391 20.30137375 -50.83968445 20.0871225 -50.21176147 19.86637878 C-48.90357039 19.40720257 -47.59322344 18.95413144 -46.28100586 18.5065918 C-42.85123693 17.33464135 -39.43913584 16.11375566 -36.02734375 14.890625 C-35.34822937 14.64780792 -34.66911499 14.40499084 -33.96942139 14.15481567 C-23.99642431 10.55383171 -14.12020524 6.31420414 -4.83203125 1.18359375 C-2.11328125 -0.00390625 -2.11328125 -0.00390625 0 0 Z " fill="#FDFDFD" transform="translate(565.11328125,216.00390625)"/>
<path d="M0 0 C6.8902086 0.6528313 13.54133044 1.83612058 20.3125 3.25 C40.06565388 7.27311405 59.91150847 10.73315774 79.8125 13.9375 C80.58699493 14.06293182 81.36148987 14.18836365 82.15945435 14.31759644 C92.32853823 15.95258867 102.50541885 17.3311418 112.73828125 18.50390625 C113.8109877 18.62958481 114.88369415 18.75526337 115.98890686 18.88475037 C121.27862662 19.50446931 126.56863786 20.09802362 131.86645508 20.64428711 C133.79912921 20.86582129 135.73167234 21.0885023 137.6640625 21.3125 C138.99423149 21.43432396 138.99423149 21.43432396 140.35127258 21.55860901 C146.45470213 22.30745949 146.45470213 22.30745949 149.39599609 26.04296875 C149.92531738 27.01878906 150.45463867 27.99460937 151 29 C151.99 29.33 152.98 29.66 154 30 C153.5477299 42.18010155 152.24435282 54.01817569 150 66 C149.87286621 66.6899707 149.74573242 67.37994141 149.61474609 68.09082031 C146.36633292 85.08823511 140.23364761 101.83597549 132.8125 117.4375 C132.51633789 118.08726807 132.22017578 118.73703613 131.91503906 119.40649414 C130.27254553 122.66595719 129.33562306 123.8681932 125.88671875 125.22265625 C124.93410156 125.47917969 123.98148438 125.73570312 123 126 C120.82479218 129.26281174 120.71755681 130.2340908 121 134 C121.33 134.99 121.66 135.98 122 137 C120.63421696 139.62326611 119.22776156 142.02720064 117.625 144.5 C117.16746338 145.21687988 116.70992676 145.93375977 116.23852539 146.67236328 C110.40125565 155.66657522 103.46990595 163.61721174 96.25390625 171.5234375 C94.7257804 173.20252205 93.21314142 174.89580823 91.71484375 176.6015625 C87.10037523 181.84131921 82.40204106 186.58174528 77 191 C76.48195801 191.43038574 75.96391602 191.86077148 75.43017578 192.30419922 C63.7169165 202.01755352 51.54356919 210.54137961 38.3125 218.0625 C37.640979 218.44494873 36.96945801 218.82739746 36.27758789 219.22143555 C33.20703505 220.92764633 30.425263 222.24822696 27 223 C22.6931664 214.79505103 19.09873741 206.5195154 15.9375 197.8125 C15.5041333 196.62849609 15.0707666 195.44449219 14.62426758 194.22460938 C11.61403269 185.91003329 8.8382413 177.58196294 6.54882812 169.04101562 C5.95989021 166.85083727 5.3473992 164.66792646 4.734375 162.484375 C-9.68804256 110.38806625 -10.80950894 52.89403426 0 0 Z " fill="#FDFDFD" transform="translate(76,335)"/>
<path d="M0 0 C0.92296875 0.23074219 1.8459375 0.46148437 2.796875 0.69921875 C3.41522217 0.85374512 4.03356934 1.00827148 4.6706543 1.16748047 C6.08629603 1.52151556 7.50181886 1.87602639 8.91723633 2.23095703 C12.86800809 3.22087665 16.82055354 4.20236673 20.77734375 5.16796875 C30.12796813 7.46034962 39.39877992 9.93459433 48.64233398 12.6262207 C55.97656867 14.74586774 63.3543126 16.66970891 70.75 18.5625 C79.7076846 20.85565217 88.60309727 23.26553219 97.44921875 25.95703125 C100.09604452 26.73448172 102.66776843 27.36263686 105.35546875 27.9453125 C106.55816406 28.29335938 107.76085937 28.64140625 109 29 C110.04808041 30.97522846 111.0520411 32.97481509 112 35 C114.85289698 36.25329784 114.85289698 36.25329784 118 36 C118.69867187 35.46246094 119.39734375 34.92492187 120.1171875 34.37109375 C124.50408704 32.28464153 127.72731027 33.69452567 132.25 35 C133.14259521 35.24057129 134.03519043 35.48114258 134.95483398 35.72900391 C141.02127062 37.38147513 147.0530568 39.1626161 153.07128906 40.98242188 C159.833153 43.00693204 166.66264639 44.75049438 173.5 46.5 C181.68646625 48.59470938 189.82183176 50.77227217 197.90869141 53.22216797 C203.35809827 54.85496423 208.8527408 56.26077929 214.375 57.625 C215.2215918 57.83439209 216.06818359 58.04378418 216.94042969 58.25952148 C218.55834004 58.65889727 220.17633755 59.05792017 221.79443359 59.45654297 C224.76218094 60.18780327 227.72795291 60.92362209 230.6875 61.6875 C231.93080078 62.00267578 231.93080078 62.00267578 233.19921875 62.32421875 C235 63 235 63 236 65 C235.18402344 65.29390625 234.36804688 65.5878125 233.52734375 65.890625 C215.63984085 72.66412991 198.43299896 81.67653737 183 93 C182.43055664 93.41540039 181.86111328 93.83080078 181.27441406 94.25878906 C165.33275903 106.01990879 149.41197728 120.03482619 138.5078125 136.73046875 C138.11392334 137.33165527 137.72003418 137.9328418 137.31420898 138.55224609 C136.25878321 140.20113446 135.24306403 141.87524934 134.23046875 143.55078125 C131.29543838 146.77366049 129.25861215 146.74263803 125 147 C124.01 147.33 123.02 147.66 122 148 C121.814375 149.19625 121.62875 150.3925 121.4375 151.625 C121.33308594 152.29789063 121.22867188 152.97078125 121.12109375 153.6640625 C120.88842483 156.11563292 120.88842483 156.11563292 121.65625 158.90625 C122.094443 162.84998702 121.07578034 164.50583698 119.0625 167.875 C118.49660156 168.84179688 117.93070313 169.80859375 117.34765625 170.8046875 C116.90292969 171.52914062 116.45820312 172.25359375 116 173 C111.87070668 169.77713692 108.46537013 166.37573112 105.0703125 162.39453125 C102.49798518 159.41936776 99.84826863 156.52098908 97.1875 153.625 C96.70708252 153.10091553 96.22666504 152.57683105 95.73168945 152.03686523 C93.85159802 149.99067738 91.96513159 147.96513159 90 146 C89.83984375 143.94140625 89.83984375 143.94140625 89.9375 141.5625 C90.05115028 138.56312088 89.96909818 136.90729453 89 134 C88.09507812 133.92652344 88.09507812 133.92652344 87.171875 133.8515625 C85.97304688 133.73941406 85.97304688 133.73941406 84.75 133.625 C83.96109375 133.55539062 83.1721875 133.48578125 82.359375 133.4140625 C77.31582014 132.52893532 74.91293238 130.03363597 71.60546875 126.23828125 C63.52064207 117.17267319 54.83432703 108.6833731 46.23803711 100.10766602 C43.79076523 97.66612258 41.34805696 95.22007009 38.90662861 92.77268505 C36.54045508 90.40199982 34.17044753 88.03516277 31.80078125 85.66796875 C30.93600662 84.80116989 30.07123199 83.93437103 29.18025208 83.04130554 C24.79604652 78.67385556 20.35155145 74.44761337 15.64653015 70.42634583 C13.486378 68.55506275 11.48935963 66.5505707 9.5 64.5 C6.04207806 60.99421755 2.47438402 57.7004012 -1.2734375 54.5078125 C-1.84320313 54.01023437 -2.41296875 53.51265625 -3 53 C-3.82757813 52.31744141 -3.82757813 52.31744141 -4.671875 51.62109375 C-6.45008179 49.45063546 -6.54131533 47.70057181 -6.875 44.9375 C-7.26380851 42.30208558 -7.26380851 42.30208558 -8 40 C-10.45748398 38.24431996 -10.45748398 38.24431996 -13 38 C-12.42083095 32.73978228 -11.23189331 28.17430468 -9.3125 23.25 C-9.08111328 22.59128906 -8.84972656 21.93257813 -8.61132812 21.25390625 C-7.20561026 17.63500857 -6.22193968 16.13343951 -2.85546875 14.109375 C-1.44201172 13.56023437 -1.44201172 13.56023437 0 13 C1.37424059 11.85222875 1.37424059 11.85222875 1.125 8.75 C1.02164252 5.64927572 0.65361593 3.00870826 0 0 Z " fill="#FDFDFD" transform="translate(439,412)"/>
<path d="M0 0 C3.62041445 1.54326422 6.03404768 3.73902705 8.875 6.4375 C15.26445264 12.38003892 22.05814321 17.7215868 29 23 C29.58765137 23.44988281 30.17530273 23.89976562 30.78076172 24.36328125 C69.90679181 54.19405838 118.29209754 78.9668224 167.2109375 86.84375 C169.08652344 87.41609375 169.08652344 87.41609375 171 88 C172.88883782 92.25712241 173.52348157 96.63498008 174.18359375 101.22265625 C174.28372269 101.91237015 174.38385162 102.60208405 174.48701477 103.31269836 C174.81071085 105.56171684 175.12495231 107.81190679 175.4375 110.0625 C175.60082825 111.22341156 175.60082825 111.22341156 175.76745605 112.40777588 C180.10508055 143.31871483 182.24119431 173.78945654 182 205 C177.45315561 205.04536763 172.91018519 205.06121919 168.36328125 205.01953125 C164.99626175 204.98866337 161.65626584 205.04702366 158.29296875 205.19921875 C146.23979959 205.49552256 139.97805515 201.43448603 131.03173828 193.70703125 C127.64204224 190.85906745 124.04239868 188.31615173 120.4375 185.75 C119.33474731 184.95613892 119.33474731 184.95613892 118.2097168 184.14624023 C105.59849767 175.08113016 92.84659384 166.19844073 79.9375 157.5625 C79.06242798 156.96671143 79.06242798 156.96671143 78.16967773 156.35888672 C75.2359655 154.38373874 72.30207575 152.60382542 69.15234375 150.9921875 C62.59588081 147.50734129 58.64665369 144.76422193 56.21142578 137.50415039 C53.17245441 126.65509119 53.17245441 126.65509119 56 121 C56.38861928 117.42470261 56.50519819 115.67359759 54.3125 112.75 C52.11024861 110.88812824 52.11024861 110.88812824 49.51000977 110.17553711 C46.37456839 108.70708558 45.87913533 107.58119829 44.52734375 104.44140625 C44.10904297 103.5073999 43.69074219 102.57339355 43.25976562 101.61108398 C42.82341797 100.60505127 42.38707031 99.59901855 41.9375 98.5625 C32.85526184 78.6601604 20.84367425 61.28668903 6.0390625 45.2265625 C4.17658618 43.19282399 2.39915443 41.11048702 0.625 39 C-4.86699179 32.68485253 -11.21954254 26.90670107 -18 22 C-16.41205122 18.23303261 -14.02448488 15.65956183 -11.25 12.6875 C-7.40417596 8.52955112 -3.65383709 4.32691235 0 0 Z " fill="#FDFDFD" transform="translate(168,159)"/>
<path d="M0 0 C1.26075341 0.94402225 2.52129025 1.88833372 3.78173828 2.83276367 C4.83471603 3.62151131 4.83471603 3.62151131 5.90896606 4.42619324 C14.0852207 10.58001246 22.04298292 16.89238053 29.578125 23.82421875 C32.13257166 26.11910067 34.76472107 28.28191134 37.4375 30.4375 C42.25727395 34.33824926 46.85121613 38.43603976 51.4140625 42.6328125 C54.38020517 45.3480428 57.40006206 47.99464827 60.44140625 50.625 C63.96793438 53.73612256 63.96793438 53.73612256 64.35668945 56.93530273 C64.18771306 62.26838984 62.12807536 67.08510735 60.29296875 72.03515625 C59.90095276 73.12058212 59.50893677 74.206008 59.1050415 75.32432556 C58.25496008 77.67427533 57.39983834 80.02240658 56.54025269 82.36889648 C55.1657725 86.12182553 53.80425924 89.87930954 52.44750977 93.63867188 C51.03630966 97.54728809 49.62466165 101.45573082 48.20823669 105.36245728 C43.54842739 118.21712375 38.97516955 131.1017128 34.4375 144 C33.86091141 145.63713455 33.86091141 145.63713455 33.27267456 147.30734253 C26.16224501 167.5122633 19.24878524 187.78190929 12.40405273 208.078125 C11.66001708 210.28386212 10.9159584 212.48959148 10.171875 214.6953125 C9.63748558 216.28052704 9.63748558 216.28052704 9.09230042 217.89776611 C6.84416706 224.55091186 4.54176032 231.18287232 2.203125 237.8046875 C0.00709295 244.02830557 -2.05171096 250.26750927 -3.94921875 256.58984375 C-5.26605904 260.86345554 -6.6746735 265.10316657 -8.09375 269.34375 C-8.36977051 270.16858887 -8.64579102 270.99342773 -8.93017578 271.84326172 C-10.07291696 275.25304331 -11.2184047 278.66189979 -12.36376953 282.07080078 C-15.381243 291.05803417 -18.37203642 300.04352765 -21.12353516 309.11669922 C-22.51571771 313.69655323 -23.97910442 318.25339036 -25.4375 322.8125 C-28.32591085 331.86446866 -31.17923084 340.92674252 -34 350 C-41.58203041 348.58235146 -48.37735572 346.05082873 -55.5 343.125 C-56.57636719 342.69058594 -57.65273438 342.25617188 -58.76171875 341.80859375 C-64.8946079 339.32107598 -70.97455432 336.73761469 -77 334 C-76.33836272 329.55469098 -74.6936728 325.71159212 -72.859375 321.6484375 C-72.19969802 320.15891155 -71.54054152 318.669155 -70.88183594 317.17919922 C-70.53407104 316.39639587 -70.18630615 315.61359253 -69.82800293 314.80706787 C-61.92403531 296.97503313 -54.87211075 278.91624244 -48.28149414 260.56274414 C-47.13174354 257.36626663 -45.96473224 254.17673292 -44.79296875 250.98828125 C-43.26663675 246.79184616 -41.87348482 242.58113914 -40.5625 238.3125 C-40.13689481 236.93093533 -39.71110839 235.54942649 -39.28515625 234.16796875 C-39.07262207 233.47622559 -38.86008789 232.78448242 -38.64111328 232.07177734 C-38.01905971 230.06159204 -37.38507197 228.05564411 -36.74609375 226.05078125 C-33.81790557 216.84413554 -31.16803167 207.58006762 -28.625 198.26025391 C-28.01600686 196.05788732 -27.38679959 193.86243984 -26.75 191.66796875 C-26.33244579 190.21640085 -25.91578342 188.76457611 -25.5 187.3125 C-25.2930249 186.59320312 -25.0860498 185.87390625 -24.87280273 185.1328125 C-23.64934375 180.74799652 -22.64809675 176.36499417 -21.78515625 171.89453125 C-21.58019531 170.85449951 -21.37523437 169.81446777 -21.1640625 168.74291992 C-20.7707329 166.70427853 -20.39870593 164.66138136 -20.05078125 162.61450195 C-18.67940779 155.52927648 -18.67940779 155.52927648 -14.87109375 152.5625 C-13.92363281 152.046875 -12.97617187 151.53125 -12 151 C-11.33292452 147.41499591 -11.33292452 147.41499591 -12 144 C-12.99 143.01 -12.99 143.01 -14 142 C-14.31594823 136.98840742 -13.69276835 132.2338612 -12.828125 127.3125 C-12.57501794 125.80885405 -12.3220111 124.30519122 -12.0690918 122.80151367 C-11.93530121 122.01859955 -11.80151062 121.23568542 -11.66366577 120.42904663 C-5.99300533 87.37636074 -5.99300533 87.37636074 -3.17578125 53.99609375 C-3 51 -3 51 -2.52246094 48.46459961 C-1.82493184 43.83906906 -1.65387767 39.24077994 -1.46484375 34.5703125 C-1.42186661 33.57998016 -1.37888947 32.58964783 -1.33460999 31.56930542 C-1.19878928 28.42134015 -1.06807329 25.27318686 -0.9375 22.125 C-0.84604044 19.98436056 -0.75424727 17.84373535 -0.66210938 15.703125 C-0.43754185 10.4689086 -0.21715963 5.23452869 0 0 Z " fill="#FDFDFD" transform="translate(354,399)"/>
<path d="M0 0 C4.38839476 2.75456038 8.08462232 5.78866428 11.73828125 9.47265625 C12.26334763 9.99580917 12.788414 10.5189621 13.32939148 11.05796814 C14.43518739 12.16241028 15.53849068 13.2693532 16.6394043 14.37866211 C18.29069295 16.04055294 19.95223939 17.69163021 21.61523438 19.34179688 C28.20089054 25.91926659 34.21428579 32.70073626 40 40 C40.87469848 41.03962379 41.75482304 42.07475466 42.64453125 43.1015625 C63.08060363 66.88841431 79.2344501 94.8202228 92.375 123.1875 C92.76260498 124.00661865 93.15020996 124.8257373 93.54956055 125.66967773 C96.64810999 132.5784576 96.64810999 132.5784576 95 137 C67.88303678 146.69617279 39.47874157 149.96916459 11 145 C10.06575195 144.83870605 9.13150391 144.67741211 8.16894531 144.51123047 C5.12440956 143.96333155 2.09394373 143.3659878 -0.9375 142.75 C-1.90437744 142.56993408 -2.87125488 142.38986816 -3.86743164 142.2043457 C-6.40258734 141.65029903 -8.65525802 141.1132376 -11 140 C-12.50390625 136.953125 -12.50390625 136.953125 -13 134 C-15.58844848 131.41155152 -17.39883667 131.76122558 -20.9296875 131.734375 C-23.06179484 131.86422176 -23.06179484 131.86422176 -24.84863281 133.1328125 C-27 134 -27 134 -29.15966797 133.37597656 C-29.92939941 132.96831055 -30.69913086 132.56064453 -31.4921875 132.140625 C-32.35521484 131.68945312 -33.21824219 131.23828125 -34.10742188 130.7734375 C-35.02072266 130.27070313 -35.93402344 129.76796875 -36.875 129.25 C-37.81666016 128.74210938 -38.75832031 128.23421875 -39.72851562 127.7109375 C-47.61716921 123.3756829 -54.96293753 118.60521425 -62 113 C-62.55091309 112.56187988 -63.10182617 112.12375977 -63.66943359 111.67236328 C-75.89072903 101.84365276 -87.15803194 91.02320241 -96 78 C-96 77.34 -96 76.68 -96 76 C-90.82421875 72.77734375 -90.82421875 72.77734375 -89 72 C-88.01 72.33 -87.02 72.66 -86 73 C-83.2860651 73.33377022 -80.70903491 73.40154797 -78 73 C-75.3619324 70.78742717 -75.04502278 69.45503019 -74.70703125 66.0390625 C-74 63 -74 63 -72.1640625 61.375 C-70.90722656 60.694375 -70.90722656 60.694375 -69.625 60 C-55.33698349 51.58326206 -42.32483518 41.05195487 -30 30 C-29.23381348 29.3184082 -29.23381348 29.3184082 -28.45214844 28.62304688 C-22.49262127 23.30954927 -16.72452641 17.81575207 -11.0625 12.1875 C-10.53068115 11.660354 -9.9988623 11.13320801 -9.45092773 10.59008789 C-6.08763785 7.21294195 -3.00388128 3.70091451 0 0 Z " fill="#FDFDFD" transform="translate(665,137)"/>
<path d="M0 0 C6.6076929 15.51680845 12.30253018 31.29612718 17.75 47.25 C18.06542755 48.16841675 18.3808551 49.0868335 18.70584106 50.03308105 C22.1783029 60.16413266 25.49141282 70.33481082 28.515625 80.609375 C28.78227966 81.49345032 29.04893433 82.37752563 29.32366943 83.28839111 C29.6782724 84.52187286 29.6782724 84.52187286 30.04003906 85.78027344 C30.25049866 86.5006781 30.46095825 87.22108276 30.67779541 87.96331787 C31.05059465 90.31981303 30.82123629 91.76854666 30 94 C29.34 94.66 28.68 95.32 28 96 C27.63795837 99.33078297 27.64415286 101.34168279 29.25 104.3125 C31.20882376 106.20136577 32.39430258 106.45624909 35 107 C38.10285943 117.18347607 40.53855734 127.43564767 42.71972656 137.85205078 C43.25407663 140.39439589 43.80246798 142.93345986 44.3515625 145.47265625 C44.69876641 147.11440386 45.04515028 148.75632515 45.390625 150.3984375 C45.55306702 151.14443207 45.71550903 151.89042664 45.88287354 152.6590271 C46.88626208 157.53097189 47.14452452 162.02512942 47 167 C15.97989095 163.65123823 -14.63309155 150.44382287 -42 136 C-42.77166504 135.59555664 -43.54333008 135.19111328 -44.33837891 134.77441406 C-71.63548547 120.38700394 -96.50783645 102.11022977 -119 81 C-115.40956817 72.41847337 -105.9724734 65.916782 -99 60 C-98.1028125 59.21367187 -97.205625 58.42734375 -96.28125 57.6171875 C-81.2791374 44.55452076 -65.04071929 33.23053936 -48 23 C-46.75911621 22.25387451 -46.75911621 22.25387451 -45.49316406 21.49267578 C-35.36492202 15.45028071 -25.05476522 9.88703537 -14.4375 4.75 C-13.45555664 4.27167725 -12.47361328 3.79335449 -11.46191406 3.30053711 C-10.54506836 2.86620361 -9.62822266 2.43187012 -8.68359375 1.984375 C-7.87462646 1.59991211 -7.06565918 1.21544922 -6.23217773 0.81933594 C-4 0 -4 0 0 0 Z " fill="#FDFDFD" transform="translate(291,76)"/>
<path d="M0 0 C-0.0625 2.3125 -0.0625 2.3125 -1 5 C-4.4375 6.6875 -4.4375 6.6875 -8 8 C-10.30746414 9.87773264 -10.30746414 9.87773264 -10.25 12.9375 C-10.23517754 16.17282787 -10.23517754 16.17282787 -8 19 C-8.37420169 23.70759564 -10.50549209 28.1105712 -12.25390625 32.453125 C-12.58657501 33.28960068 -12.91924377 34.12607635 -13.26199341 34.98789978 C-13.98204091 36.79729327 -14.7039737 38.60593741 -15.42758179 40.41390991 C-17.36402562 45.25296272 -19.28622077 50.09768008 -21.2109375 54.94140625 C-21.60719833 55.93743362 -22.00345917 56.933461 -22.41172791 57.95967102 C-26.19869845 67.48334759 -29.94191639 77.02385117 -33.66696167 86.57189941 C-34.3369257 88.28899153 -35.00742039 90.00587671 -35.67849731 91.72253418 C-36.62407758 94.1413896 -37.56813574 96.5608336 -38.51171875 98.98046875 C-38.7767923 99.65826889 -39.04186584 100.33606903 -39.31497192 101.03440857 C-42.28430522 108.66297762 -45.12488558 116.33302822 -48 124 C-77.37 124 -106.74 124 -137 124 C-137.66 122.35 -138.32 120.7 -139 119 C-141.97 118.67 -144.94 118.34 -148 118 C-148.08918701 116.21166748 -148.08918701 116.21166748 -148.18017578 114.38720703 C-149.40774047 90.35252026 -151.14784786 66.456432 -154.0625 42.5625 C-154.19215149 41.49010071 -154.32180298 40.41770142 -154.4553833 39.31280518 C-154.82870903 36.25052125 -155.21064402 33.18948829 -155.59765625 30.12890625 C-155.70907455 29.23392929 -155.82049286 28.33895233 -155.93528748 27.41685486 C-156.57178525 22.5321025 -157.42578263 17.78592077 -158.61180115 13.00328064 C-159 11 -159 11 -159 7 C-158.37246826 7.08040527 -157.74493652 7.16081055 -157.09838867 7.24365234 C-154.12836292 7.62291968 -151.15793475 7.99894983 -148.1875 8.375 C-146.70926758 8.56449219 -146.70926758 8.56449219 -145.20117188 8.7578125 C-141.8024506 9.18667323 -138.40156487 9.59431082 -135 10 C-134.30585999 10.08718292 -133.61171997 10.17436584 -132.89654541 10.26419067 C-121.12055247 11.73242984 -109.53062478 12.28959401 -97.66601562 12.20581055 C-95.00120401 12.18750827 -92.33674323 12.18530248 -89.671875 12.18554688 C-82.62284817 12.16878892 -75.5978602 12.13772893 -68.5625 11.65869141 C-67.25466553 11.5713549 -67.25466553 11.5713549 -65.92041016 11.48225403 C-64.26269342 11.36406857 -62.6059161 11.23155499 -60.95068359 11.08256531 C-55.40444817 10.67800117 -55.40444817 10.67800117 -53.1640625 12.46166992 C-52.77992188 12.96931885 -52.39578125 13.47696777 -52 14 C-47.92205575 14.42478586 -46.46923881 14.31282587 -43 12 C-42.70432129 11.32195312 -42.40864258 10.64390625 -42.10400391 9.9453125 C-41 8 -41 8 -38.91552734 7.2421875 C-38.0642627 7.12101563 -37.21299805 6.99984375 -36.3359375 6.875 C-35.38549561 6.72772461 -34.43505371 6.58044922 -33.45581055 6.42871094 C-31.93080933 6.21649902 -31.93080933 6.21649902 -30.375 6 C-28.28440638 5.67668708 -26.19455651 5.34852925 -24.10546875 5.015625 C-23.07212402 4.85126953 -22.0387793 4.68691406 -20.97412109 4.51757812 C-15.52770174 3.56975272 -10.22375334 2.16050963 -4.88671875 0.734375 C-2 0 -2 0 0 0 Z " fill="#FDFDFD" transform="translate(502,241)"/>
<path d="M0 0 C5.05995241 3.76252872 8.72642437 8.20159562 12.65234375 13.1171875 C14.8141097 15.77173537 17.05450277 18.29689835 19.375 20.8125 C23.41417575 25.24437339 27.10313508 29.88081821 30.77294922 34.61645508 C33.92016938 38.66436355 37.16356158 42.60699352 40.5 46.5 C45.67590527 52.55517784 50.61339797 58.77344957 55.49609375 65.06640625 C57.09512203 67.12229975 58.70320039 69.17088838 60.3125 71.21875 C66.60141503 79.23705036 72.79719886 87.3202894 78.875 95.5 C79.48835205 96.31944092 80.1017041 97.13888184 80.73364258 97.9831543 C81.2933374 98.74152588 81.85303223 99.49989746 82.4296875 100.28125 C82.92710449 100.95220703 83.42452148 101.62316406 83.93701172 102.31445312 C85 104 85 104 85 106 C83.3737793 107.33764648 83.3737793 107.33764648 81.07421875 108.87109375 C80.22432373 109.44005371 79.37442871 110.00901367 78.4987793 110.59521484 C77.10719604 111.507146 77.10719604 111.507146 75.6875 112.4375 C74.7385083 113.06350098 73.7895166 113.68950195 72.81176758 114.33447266 C49.83784359 129.34993449 22.72547808 145.82371422 -4 153 C-6.15820312 152.54248047 -6.15820312 152.54248047 -8 152 C-23.1554869 103.49655916 -23.00881593 47.99573466 -0.796875 1.48046875 C-0.53390625 0.99191406 -0.2709375 0.50335937 0 0 Z " fill="#FDFDFD" transform="translate(555,592)"/>
<path d="M0 0 C3.10501805 0.64812205 5.5796549 1.71276074 8.359375 3.23046875 C9.64207275 3.92861694 9.64207275 3.92861694 10.95068359 4.64086914 C11.87445801 5.15125732 12.79823242 5.66164551 13.75 6.1875 C14.72662598 6.72431396 15.70325195 7.26112793 16.70947266 7.81420898 C26.75570226 13.36725239 36.67425755 19.13165426 46.55810547 24.96777344 C49.00638507 26.41333163 51.45579533 27.8568257 53.90673828 29.29785156 C83.87308693 46.92110683 83.87308693 46.92110683 95.421875 54.66796875 C97.89513261 56.3188478 100.40853691 57.80840531 103.015625 59.23828125 C111.96181638 64.23935435 111.96181638 64.23935435 114.42578125 68.41796875 C115.33015658 71.63197953 115.67502658 74.6724076 116 78 C116.2634891 79.83310193 116.53504161 81.66505415 116.8125 83.49609375 C118.20956274 93.06113605 119.22290605 102.3183293 119 112 C113.31100887 112.22123854 108.67635551 111.59657917 103.25 109.8125 C96.89630438 107.83249469 90.52840787 106.07561493 84.0625 104.5 C72.93571381 101.76863765 61.91392484 98.71608923 50.91015625 95.52734375 C41.41062813 92.77915251 31.90192527 90.17905218 22.2980957 87.81982422 C14.69692447 85.94584919 7.16126882 83.87167774 -0.37158203 81.74169922 C-4.63344786 80.53906608 -8.89866414 79.34842 -13.16333008 78.15576172 C-18.10938969 76.77230221 -23.05471933 75.38624089 -28 74 C-24.75939522 48.00834519 -11.48929028 23.13030346 0 0 Z " fill="#FCFCFC" transform="translate(111,238)"/>
<path d="M0 0 C31.36095745 11.75224285 64.53184795 31.94380769 88 56 C76.96918719 68.33955331 65.65633574 80.71286665 52.60546875 90.94921875 C49.85076711 93.11746217 47.21592624 95.39674569 44.5625 97.6875 C39.09835992 102.25293283 33.38370492 106.40180877 27.5625 110.5 C26.69761963 111.11190186 25.83273926 111.72380371 24.94165039 112.35424805 C24.11656982 112.92828369 23.29148926 113.50231934 22.44140625 114.09375 C21.33841187 114.86235352 21.33841187 114.86235352 20.21313477 115.64648438 C17.85682672 117.08756234 15.62973836 118.15323245 13 119 C12.01 118.505 12.01 118.505 11 118 C7.54199641 117.58326793 7.54199641 117.58326793 4 118 C1.388863 120.2629854 1.03834186 121.62424982 0.6875 125.0625 C0 128 0 128 -2.8125 129.9375 C-6.0711326 131.02371087 -6.93381059 131.22939924 -10 130 C-11.2644043 128.49707031 -11.2644043 128.49707031 -12.32421875 126.578125 C-12.90719727 125.53398437 -12.90719727 125.53398437 -13.50195312 124.46875 C-13.89318359 123.7365625 -14.28441406 123.004375 -14.6875 122.25 C-15.09033203 121.53328125 -15.49316406 120.8165625 -15.90820312 120.078125 C-19.80708473 112.97262552 -19.80708473 112.97262552 -20 109 C-19.34 108.01 -18.68 107.02 -18 106 C-17.49985047 103.54258463 -17.49985047 103.54258463 -18 101 C-20.66821361 97.44238185 -22.72621712 96.70875338 -27 96 C-27.87604583 93.35973729 -28.72562669 90.71518861 -29.5625 88.0625 C-29.80935547 87.32708984 -30.05621094 86.59167969 -30.31054688 85.83398438 C-30.53935547 85.09599609 -30.76816406 84.35800781 -31.00390625 83.59765625 C-31.21861572 82.93258057 -31.4333252 82.26750488 -31.65454102 81.58227539 C-32.80722162 72.96608972 -29.57797293 65.81640255 -26.1171875 58.08984375 C-25.62469513 56.96413467 -25.13220276 55.8384256 -24.62478638 54.67860413 C-23.05299451 51.09306346 -21.46437221 47.51527726 -19.875 43.9375 C-18.82959903 41.5610437 -17.78531768 39.18409455 -16.7421875 36.80664062 C-14.74005092 32.24787416 -12.73058402 27.69247123 -10.71386719 23.14013672 C-9.04035777 19.36070102 -7.37653456 15.57753728 -5.73144531 11.78564453 C-5.40250275 11.02788223 -5.07356018 10.27011993 -4.73464966 9.48939514 C-4.14518496 8.12878251 -3.55754117 6.76737884 -2.97213745 5.40501404 C-1.10962568 1.10962568 -1.10962568 1.10962568 0 0 Z " fill="#FDFDFD" transform="translate(575,79)"/>
<path d="M0 0 C3.56367372 1.25925953 6.02966598 2.62351708 8.78515625 5.203125 C9.47464355 5.84644775 10.16413086 6.48977051 10.87451172 7.15258789 C11.59654785 7.84473389 12.31858398 8.53687988 13.0625 9.25 C14.19196045 10.32592407 14.19196045 10.32592407 15.34423828 11.42358398 C33.63307957 29.07942491 47.59376297 49.63249988 59.5 72 C60.04132568 73.00417969 60.58265137 74.00835937 61.14038086 75.04296875 C61.64061768 75.99816406 62.14085449 76.95335937 62.65625 77.9375 C63.10806641 78.79214844 63.55988281 79.64679688 64.02539062 80.52734375 C65.10523043 83.2669774 65.33407168 85.08228043 65 88 C64.34 88.99 63.68 89.98 63 91 C63.19319745 94.09115927 63.47704392 96.24171368 65.25 98.8125 C67.43738378 100.29679614 69.41969175 100.5404353 72 101 C72.53341184 102.57914015 73.05125763 104.16354387 73.5625 105.75 C73.85253906 106.63171875 74.14257812 107.5134375 74.44140625 108.421875 C75.01697435 111.07834316 74.89248371 112.47031106 74 115 C73.07445312 114.3915625 72.14890625 113.783125 71.1953125 113.15625 C43.24911107 94.87934876 14.50178491 77.81622719 -14.70727539 61.64013672 C-20.88291657 58.21652912 -26.96998397 54.67427113 -33 51 C-31.51273068 45.72845652 -29.11323783 41.48559143 -26.25 36.875 C-25.77409424 36.10309326 -25.29818848 35.33118652 -24.80786133 34.53588867 C-20.93968069 28.34196211 -16.86354969 22.30233315 -12.6875 16.3125 C-12.11354492 15.4879834 -11.53958984 14.6634668 -10.94824219 13.81396484 C-7.53000198 8.97360212 -3.92707299 4.43800836 0 0 Z " fill="#FCFCFC" transform="translate(147,184)"/>
<path d="M0 0 C-2.40442601 8.56827947 -5.49718664 16.82752581 -8.6875 25.125 C-9.20410221 26.47643786 -9.72038055 27.82799958 -10.23632812 29.1796875 C-11.48716096 32.45455893 -12.742347 35.7277407 -14 39 C-20.34142857 38.52539353 -26.2217526 37.62911316 -32.3125 35.8125 C-33.07320801 35.59400391 -33.83391602 35.37550781 -34.61767578 35.15039062 C-37.08085876 34.44163281 -39.54048184 33.72136305 -42 33 C-45.45684836 31.99481714 -48.9153701 30.99556542 -52.375 30 C-53.24946777 29.74790771 -54.12393555 29.49581543 -55.02490234 29.23608398 C-61.9572031 27.25569944 -68.9295453 25.48223244 -75.93041992 23.76269531 C-96.24363808 18.75636192 -96.24363808 18.75636192 -98 17 C-98.07226502 15.14712498 -98.0838122 13.29166122 -98.0625 11.4375 C-98.05347656 10.42558594 -98.04445313 9.41367187 -98.03515625 8.37109375 C-98.02355469 7.58863281 -98.01195312 6.80617188 -98 6 C-94.97265625 5.36523438 -94.97265625 5.36523438 -91.9453125 4.73046875 C-89.62953451 4.07691162 -89.62953451 4.07691162 -88 1 C-84.95498657 0.60127258 -84.95498657 0.60127258 -80.98681641 0.56762695 C-79.90338455 0.55233948 -79.90338455 0.55233948 -78.79806519 0.53674316 C-76.39915335 0.50644938 -74.00064114 0.4973135 -71.6015625 0.48828125 C-69.92921637 0.47142607 -68.25688285 0.45327469 -66.58456421 0.43388367 C-62.16689044 0.38623495 -57.74926743 0.35655006 -53.3314209 0.33044434 C-48.87839169 0.30091949 -44.4255495 0.25412546 -39.97265625 0.20898438 C-26.64856098 0.0791476 -13.32483607 -0.02650951 0 0 Z " fill="#FCFCFC" transform="translate(452,368)"/>
<path d="M0 0 C13.31226223 2.91538543 26.51739376 6.17544405 39.56225586 10.12426758 C45.02269714 11.75901948 50.5246239 13.15347607 56.0625 14.5 C64.83539279 16.63548445 73.42306735 19.18494529 82 22 C81.505 23.485 81.505 23.485 81 25 C79.02 25.33 77.04 25.66 75 26 C74.79375 27.216875 74.5875 28.43375 74.375 29.6875 C74.20097656 30.71423828 74.20097656 30.71423828 74.0234375 31.76171875 C73.83557814 34.08884692 73.83557814 34.08884692 75.09570312 36.30859375 C76.23124714 39.68824742 75.71477713 41.01171379 74.4453125 44.30078125 C74.07792969 45.27724609 73.71054687 46.25371094 73.33203125 47.25976562 C72.93371094 48.26716797 72.53539062 49.27457031 72.125 50.3125 C71.73441406 51.33923828 71.34382813 52.36597656 70.94140625 53.42382812 C69.97587378 55.95540715 68.99509159 58.47992579 68 61 C63.52977494 60.14225348 61.11116444 57.58713988 57.9375 54.5 C52.99731886 49.81055412 47.92678135 45.4122484 42.61328125 41.14453125 C40.00152377 39.00125044 37.49634698 36.7761967 35 34.5 C29.82796932 29.7936972 24.43598345 25.39585813 19 21 C16.19582627 18.69000443 13.39267576 16.37885235 10.59375 14.0625 C8.2316219 12.18418127 5.81074673 10.50145554 3.3125 8.8125 C1.39453125 7.41796875 1.39453125 7.41796875 0 6 C-0.5 2.625 -0.5 2.625 0 0 Z " fill="#FAFAFA" transform="translate(354,389)"/>
<path d="M0 0 C22.2817296 13.98977617 43.82543414 29.11548803 65.08300781 44.60742188 C66.90142971 45.92839469 68.72639041 47.23961668 70.5546875 48.546875 C71.56789063 49.27390625 72.58109375 50.0009375 73.625 50.75 C74.48351562 51.36359375 75.34203125 51.9771875 76.2265625 52.609375 C76.81179688 53.06828125 77.39703125 53.5271875 78 54 C78 54.33 78 54.66 78 55 C16.14629107 53.37401022 16.14629107 53.37401022 5 43 C4.40991211 40.71020508 4.40991211 40.71020508 4.27734375 38.01953125 C4.18428955 36.53102661 4.18428955 36.53102661 4.08935547 35.01245117 C4.01418701 33.42847534 4.01418701 33.42847534 3.9375 31.8125 C3.37895303 23.00581195 2.40750872 14.57913786 0.5859375 5.94921875 C0 3 0 3 0 0 Z " fill="#FAFAFA" transform="translate(228,307)"/>
<path d="M0 0 C-1.28728239 9.89174892 -3.45329054 19.36948221 -6 29 C-12.66912624 28.42681928 -18.76161444 27.15321205 -25.1875 25.3125 C-27.13405768 24.76802568 -29.08067396 24.22376086 -31.02734375 23.6796875 C-32.51016846 23.26154785 -32.51016846 23.26154785 -34.02294922 22.83496094 C-37.8384076 21.76485534 -41.66150454 20.72428919 -45.48632812 19.68823242 C-47.32078654 19.18991443 -49.1541391 18.68750651 -50.98632812 18.1809082 C-55.402987 16.9607464 -59.8208672 15.78911365 -64.27734375 14.72265625 C-65.52112793 14.4124353 -65.52112793 14.4124353 -66.79003906 14.09594727 C-68.34053859 13.71053287 -69.89585369 13.34379932 -71.45605469 12.99975586 C-75.25788328 12.03239774 -76.75633202 11.37563421 -78.92578125 8.03125 C-79.63591811 6.0273729 -80.3277041 4.0168877 -81 2 C-76.97932382 1.3531858 -72.95843158 0.70772445 -68.9375 0.0625 C-67.80376953 -0.11990234 -66.67003906 -0.30230469 -65.50195312 -0.49023438 C-63.29186973 -0.84462092 -61.08126374 -1.19576558 -58.87011719 -1.54345703 C-56.74754557 -1.88108964 -54.62851 -2.24112422 -52.51171875 -2.61328125 C-35.01700102 -4.53984082 -17.25073795 -3.13649781 0 0 Z " fill="#FAFAFA" transform="translate(782,470)"/>
<path d="M0 0 C1.82875404 2.74313106 2.72037028 4.77074949 3.6875 7.875 C3.95949219 8.71804687 4.23148438 9.56109375 4.51171875 10.4296875 C5.05675573 13.29876219 4.80225752 15.20911625 4 18 C3.505 18.495 3.505 18.495 3 19 C2.71547056 22.20095618 2.67460675 24.3492135 4.125 27.25 C5.93265739 29.2401572 5.93265739 29.2401572 8.8203125 29.58984375 C13.46179305 31.64828905 14.61920135 34.86900526 16.75 39.3125 C17.13542969 40.07240234 17.52085937 40.83230469 17.91796875 41.61523438 C19.79439456 45.35185395 21.47452137 49.10527828 23 53 C10.31226383 59.41797212 -2.51168162 65.17893753 -15.8125 70.1875 C-16.45681976 70.4311026 -17.10113953 70.6747052 -17.76498413 70.9256897 C-28.58094406 75 -28.58094406 75 -31 75 C-28.20041855 66.02698252 -24.60687888 57.38524093 -21.0625 48.6875 C-20.73384949 47.87873413 -20.40519897 47.06996826 -20.06658936 46.23669434 C-15.51270085 35.03464224 -10.88326332 23.86682943 -6.125 12.75 C-5.61976807 11.56752686 -5.11453613 10.38505371 -4.59399414 9.16674805 C-1.12965837 1.12965837 -1.12965837 1.12965837 0 0 Z " fill="#FAFAFA" transform="translate(540,160)"/>
<path d="M0 0 C7.7772083 1.44469966 15.41154878 3.31097391 23.0625 5.3125 C24.86509277 5.78151733 24.86509277 5.78151733 26.70410156 6.26000977 C33.56031609 8.0571131 40.36634143 9.95084116 47.14672852 12.01489258 C54.53937256 14.2277841 62.02408336 16.09321484 69.5 18 C86.12004545 22.23905958 86.12004545 22.23905958 93.75 24.5625 C102.17690721 27.1155855 110.69473088 29.28198453 119.22290039 31.46923828 C127.18953476 33.51655511 135.11542525 35.65357387 143 38 C143 38.66 143 39.32 143 40 C132.18105144 39.39610101 121.53768097 38.11658416 110.8125 36.625 C109.14837113 36.39637507 107.48422713 36.16786032 105.82006836 35.93945312 C95.71016772 34.54544702 85.61043944 33.10963465 75.54443359 31.42431641 C72.48533983 30.91417392 69.42428979 30.41649178 66.36328125 29.91796875 C53.41755135 27.7978884 40.48913725 25.59032801 27.57940674 23.26138306 C26.17638107 23.00828831 24.77318837 22.7561173 23.36981201 22.50497437 C14.51519734 20.91710343 5.74526341 19.10999777 -3 17 C-2.52164273 11.08657344 -1.84330528 5.65280284 0 0 Z " fill="#F7F7F7" transform="translate(81,315)"/>
<path d="M0 0 C3.43493576 0.59772664 6.44231496 1.47527784 9.64453125 2.84765625 C10.48564453 3.20537109 11.32675781 3.56308594 12.19335938 3.93164062 C13.05767578 4.30482422 13.92199219 4.67800781 14.8125 5.0625 C16.13797852 5.62807617 16.13797852 5.62807617 17.49023438 6.20507812 C19.66201124 7.13248554 21.83181367 8.06423634 24 9 C23.43174497 13.32329708 22.37874669 16.81760668 20.55078125 20.76953125 C20.03878174 21.89069336 19.52678223 23.01185547 18.99926758 24.16699219 C18.72466705 24.76040405 18.45006653 25.35381592 18.16714478 25.96520996 C16.68973632 29.15858573 15.2343779 32.36192271 13.78125 35.56640625 C13.47552567 36.2400119 13.16980133 36.91361755 12.85481262 37.6076355 C10.52144326 42.77728262 8.28784793 47.984715 6.09375 53.21484375 C5.77593063 53.97170975 5.45811127 54.72857574 5.13066101 55.50837708 C3.57590961 59.21755155 2.0312331 62.93067718 0.49536133 66.64770508 C-0.06932196 67.99958556 -0.63417327 69.35139587 -1.19921875 70.703125 C-1.69252686 71.89583008 -2.18583496 73.08853516 -2.6940918 74.31738281 C-4 77 -4 77 -6 78 C-11.38848911 51.53866955 -7.24415892 25.56930403 0 0 Z " fill="#FAFAFA" transform="translate(547,68)"/>
<path d="M0 0 C22.59588523 -0.21378931 22.59588523 -0.21378931 30 1 C31.50156874 4.00313748 31.09281204 6.79067522 31.0625 10.125 C31.05347656 11.40632813 31.04445313 12.68765625 31.03515625 14.0078125 C31.02355469 14.99523437 31.01195312 15.98265625 31 17 C28.99945964 16.66992519 26.99954729 16.33603834 25 16 C23.88818359 15.83564453 23.88818359 15.83564453 22.75390625 15.66796875 C13.62794142 13.66708876 6.7989429 7.07372232 0 1 C0 0.67 0 0.34 0 0 Z " fill="#F7F7F7" transform="translate(320,367)"/>
<path d="M0 0 C33.80673376 -0.33615313 33.80673376 -0.33615313 43.046875 7.9296875 C44.01367188 8.95449219 44.01367188 8.95449219 45 10 C46.12148438 11.11761719 46.12148438 11.11761719 47.265625 12.2578125 C47.83796875 12.83273437 48.4103125 13.40765625 49 14 C37.23068112 11.33328091 25.60286257 8.31397728 14 5 C12.58465469 4.59758846 11.16929063 4.19524284 9.75390625 3.79296875 C6.50117753 2.86692499 3.25007751 1.9353117 0 1 C0 0.67 0 0.34 0 0 Z " fill="#EDEDED" transform="translate(278,364)"/>
</svg>
